<svg xmlns="http://www.w3.org/2000/svg" width="450" height="339.42"><g fill="#FFF"><path d="M224.085 230.399L108.886 115.2 224.085 0l115.2 115.2-115.2 115.199zM121.241 115.2l102.844 102.843L326.929 115.2 224.085 12.356 121.241 115.2z"/><path d="M333.107 339.42l-115.2-115.199 115.2-115.199 115.199 115.199L333.107 339.42zM230.263 224.221l102.844 102.844L435.95 224.221 333.107 121.378 230.263 224.221z"/><path d="M115.2 339.42L0 224.221l115.2-115.199 115.199 115.199L115.2 339.42zM12.355 224.221L115.2 327.065l102.844-102.844L115.2 121.378 12.355 224.221z"/><path d="M6.062 219.709h218.421v8.737H6.062z"/></g></svg>
