<?xml version="1.0" encoding="utf-8"?>
<!-- Generator: Adobe Illustrator 22.0.1, SVG Export Plug-In . SVG Version: 6.00 Build 0)  -->
<svg version="1.1" id="Layer_1" xmlns="http://www.w3.org/2000/svg" xmlns:xlink="http://www.w3.org/1999/xlink" x="0px" y="0px"
	 viewBox="0 0 339.3 43.6" style="enable-background:new 0 0 339.3 43.6;" xml:space="preserve">
<style type="text/css">
	.st0{fill:#FFFFFF;}
</style>
<g>
	<g>
		<path class="st0" d="M83.1,31.7c-1.8,2-3.9,3-6.2,3c-1.3,0-2.5-0.3-3.6-0.8c-1.1-0.6-2.1-1.3-2.9-2.2c-0.8-0.9-1.4-2-1.9-3.2
			s-0.7-2.4-0.7-3.6c0-1.3,0.2-2.5,0.7-3.7c0.4-1.2,1.1-2.2,1.9-3.1c0.8-0.9,1.8-1.6,2.8-2.2c1.1-0.5,2.3-0.8,3.6-0.8
			c0.9,0,1.8,0.1,2.6,0.3s1.5,0.5,2.1,0.9c0.6,0.4,1.1,0.8,1.6,1.3c0.4,0.5,0.8,1.1,1.1,1.7l-1.5,1c-0.6-1.2-1.5-2.1-2.5-2.7
			c-1-0.6-2.2-0.8-3.5-0.8c-1.1,0-2,0.2-2.9,0.7s-1.6,1.1-2.2,1.8c-0.6,0.8-1.1,1.6-1.4,2.6c-0.3,1-0.5,2-0.5,3
			c0,1.1,0.2,2.1,0.6,3.1c0.4,1,0.9,1.8,1.5,2.6c0.7,0.7,1.4,1.3,2.3,1.8C75,32.8,76,33,77,33c1.1,0,2.2-0.3,3.2-0.8s2-1.3,2.9-2.5
			l0-3.2l-4.3,0l0-1.5l5.9,0l0,9.6l-1.6,0L83.1,31.7z"/>
		<path class="st0" d="M76.9,35.1c-1.4,0-2.6-0.3-3.8-0.9c-1.1-0.6-2.1-1.4-3-2.3c-0.8-1-1.5-2.1-2-3.3s-0.7-2.5-0.7-3.8
			c0-1.3,0.2-2.6,0.7-3.9c0.5-1.2,1.1-2.3,1.9-3.3c0.8-0.9,1.8-1.7,3-2.2c1.1-0.6,2.4-0.8,3.7-0.8c1,0,1.9,0.1,2.7,0.3
			s1.6,0.5,2.2,0.9c0.6,0.4,1.2,0.9,1.7,1.4c0.5,0.5,0.9,1.1,1.2,1.8l0.1,0.3l-2.1,1.4l-0.2-0.4c-0.6-1.1-1.4-2-2.3-2.5
			c-1-0.5-2.1-0.8-3.3-0.8c-1,0-1.9,0.2-2.7,0.6s-1.5,1-2.1,1.7c-0.6,0.7-1,1.6-1.3,2.5c-0.3,0.9-0.5,1.9-0.5,2.9s0.2,2,0.5,3
			c0.4,0.9,0.9,1.8,1.5,2.5c0.6,0.7,1.4,1.3,2.2,1.7c0.8,0.4,1.7,0.6,2.7,0.6s2.1-0.2,3-0.7s1.8-1.2,2.7-2.3l0-2.7l-4.3,0l0-2.2
			l6.7,0l0,10.4l-2.4,0l0-2.3C81,34.3,79,35.1,76.9,35.1z M76.8,15.4c-1.2,0-2.4,0.3-3.4,0.8c-1,0.5-2,1.2-2.7,2.1
			c-0.8,0.9-1.4,1.9-1.8,3c-0.4,1.1-0.6,2.3-0.6,3.6c0,1.2,0.2,2.4,0.7,3.5c0.4,1.1,1.1,2.2,1.8,3.1c0.8,0.9,1.7,1.6,2.8,2.2
			c1,0.5,2.2,0.8,3.5,0.8c2.2,0,4.2-1,6-2.9l0.7-0.7l0,3.4l0.9,0l0-8.8l-5.2,0l0,0.7l4.3,0l0,3.7L83.4,30c-1,1.2-2,2-3,2.6
			c-1.1,0.5-2.2,0.8-3.4,0.8c-1.1,0-2.1-0.2-3.1-0.7c-0.9-0.5-1.7-1.1-2.4-1.9c-0.7-0.8-1.2-1.7-1.6-2.7c-0.4-1-0.6-2.1-0.6-3.3
			c0-1.1,0.2-2.1,0.5-3.1s0.8-1.9,1.5-2.7c0.6-0.8,1.4-1.4,2.3-1.9c0.9-0.5,2-0.7,3.1-0.7c1.4,0,2.6,0.3,3.7,0.9
			c1,0.5,1.8,1.4,2.4,2.4l0.9-0.6c-0.3-0.5-0.6-0.9-0.9-1.3c-0.4-0.5-0.9-0.9-1.5-1.3s-1.2-0.6-2-0.8C78.5,15.5,77.7,15.4,76.8,15.4
			z"/>
	</g>
	<g>
		<path class="st0" d="M90.8,15.2l6.4,8.5l6.4-8.5l2.1,0L98.2,25l7.3,9.6l-2.1,0l-6.2-8.2L91,34.6l-2.2,0l7.3-9.6l-7.5-9.9l2.2,0
			L90.8,15.2z"/>
		<path class="st0" d="M106.2,35l-3,0l-6-8l-6,8l-3.1,0l7.5-10l-7.8-10.2l3.2,0l6.2,8.2l6.2-8.2l3,0L98.7,25L106.2,35z M103.5,34.2
			l1.2,0l-7-9.2l7.2-9.5l-1.2,0l-6.6,8.7l-6.6-8.7l-1.2,0l7.2,9.5l-7,9.2l1.2,0l6.3-8.5L103.5,34.2z"/>
	</g>
	<g>
		<path class="st0" d="M108.4,24.7c0-1.2,0.2-2.3,0.6-3.5c0.4-1.2,1-2.2,1.8-3.1c0.8-0.9,1.8-1.7,2.9-2.2c1.1-0.6,2.5-0.9,3.9-0.9
			c1.7,0,3.2,0.4,4.4,1.2c1.2,0.8,2.1,1.8,2.7,3.1l-1.5,0.9c-0.3-0.6-0.7-1.2-1.1-1.6c-0.4-0.4-0.9-0.8-1.4-1.1
			c-0.5-0.3-1-0.5-1.6-0.6c-0.5-0.1-1.1-0.2-1.6-0.2c-1.2,0-2.2,0.2-3.1,0.7s-1.6,1.1-2.3,1.9c-0.6,0.8-1.1,1.6-1.4,2.6
			s-0.5,1.9-0.5,2.9c0,1.1,0.2,2.1,0.6,3.1c0.4,1,0.9,1.9,1.5,2.6c0.6,0.8,1.4,1.4,2.3,1.8c0.9,0.4,1.8,0.7,2.9,0.7
			c0.5,0,1.1-0.1,1.7-0.2c0.6-0.1,1.1-0.4,1.7-0.7c0.5-0.3,1-0.7,1.5-1.1c0.5-0.4,0.8-1,1.1-1.6l1.6,0.8c-0.3,0.7-0.7,1.4-1.3,1.9
			c-0.6,0.6-1.2,1-1.9,1.4c-0.7,0.4-1.4,0.7-2.2,0.9c-0.8,0.2-1.5,0.3-2.3,0.3c-1.3,0-2.6-0.3-3.7-0.9c-1.1-0.6-2.1-1.3-2.9-2.3
			c-0.8-0.9-1.4-2-1.9-3.2C108.6,27.2,108.4,26,108.4,24.7z"/>
		<path class="st0" d="M117.5,35.1c-1.4,0-2.7-0.3-3.8-0.9c-1.2-0.6-2.2-1.4-3-2.4s-1.5-2.1-1.9-3.3c-0.5-1.2-0.7-2.5-0.7-3.8
			c0-1.2,0.2-2.4,0.6-3.6c0.4-1.2,1.1-2.3,1.9-3.2c0.8-0.9,1.8-1.7,3-2.3c1.2-0.6,2.6-0.9,4.1-0.9c1.8,0,3.4,0.4,4.6,1.2
			c1.3,0.8,2.2,1.9,2.9,3.2l0.1,0.3l-2.1,1.3l-0.2-0.4c-0.3-0.6-0.6-1.1-1.1-1.5c-0.4-0.4-0.9-0.7-1.4-1s-1-0.4-1.5-0.6
			c-0.5-0.1-1-0.2-1.5-0.2c-1.1,0-2.1,0.2-2.9,0.7c-0.8,0.4-1.6,1-2.1,1.8c-0.6,0.7-1,1.6-1.3,2.5c-0.3,0.9-0.4,1.9-0.4,2.8
			c0,1,0.2,2,0.5,3c0.4,0.9,0.9,1.8,1.5,2.5s1.3,1.3,2.2,1.7c1.3,0.6,2.7,0.8,4.3,0.4c0.5-0.1,1.1-0.3,1.6-0.6
			c0.5-0.3,1-0.6,1.4-1.1c0.4-0.4,0.8-0.9,1.1-1.5l0.2-0.3l2.2,1.2l-0.1,0.3c-0.3,0.8-0.8,1.5-1.4,2c-0.6,0.6-1.2,1.1-2,1.5
			c-0.7,0.4-1.5,0.7-2.3,0.9C119.1,35,118.3,35.1,117.5,35.1z M117.6,15.4c-1.4,0-2.7,0.3-3.7,0.8c-1.1,0.5-2,1.3-2.8,2.1
			c-0.8,0.9-1.3,1.9-1.7,3c-0.4,1.1-0.6,2.2-0.6,3.4c0,1.2,0.2,2.4,0.6,3.5c0.4,1.1,1,2.2,1.8,3.1s1.7,1.6,2.8,2.2
			c1.1,0.6,2.2,0.8,3.5,0.8c0.7,0,1.4-0.1,2.2-0.3c0.7-0.2,1.5-0.5,2.1-0.8c0.7-0.4,1.3-0.8,1.8-1.3c0.4-0.4,0.8-0.9,1.1-1.5
			l-0.9-0.5c-0.3,0.5-0.6,1-1,1.4c-0.5,0.5-1,0.9-1.6,1.2s-1.2,0.6-1.8,0.7c-1.7,0.4-3.4,0.2-4.8-0.5c-0.9-0.5-1.7-1.1-2.4-1.9
			c-0.7-0.8-1.2-1.7-1.6-2.7c-0.4-1-0.6-2.1-0.6-3.2c0-1,0.2-2,0.5-3c0.3-1,0.8-1.9,1.4-2.7s1.4-1.5,2.4-2c0.9-0.5,2-0.8,3.3-0.8
			c0.6,0,1.1,0.1,1.7,0.2c0.6,0.1,1.1,0.3,1.7,0.6c0.5,0.3,1.1,0.7,1.5,1.1c0.4,0.4,0.7,0.8,1,1.4l0.9-0.5c-0.6-1.1-1.4-1.9-2.4-2.6
			C120.7,15.8,119.3,15.4,117.6,15.4z"/>
	</g>
	<g>
		<path class="st0" d="M150.1,34.6l-8.9,0l0-18.6l9.2,0c1.7,0,3.2,0.4,4.3,1.1c1.3,0.9,1.9,2.1,1.9,3.7c0,1.8-1,3.1-3,3.9
			c2.4,0.7,3.6,2.2,3.6,4.6c0,1.8-0.8,3.2-2.3,4.1C153.7,34.2,152.1,34.6,150.1,34.6z M150.4,17.3l-7.8,0l0,7l7.8,0
			c1.3,0,2.5-0.3,3.3-0.8c1-0.6,1.5-1.5,1.5-2.7c0-1.2-0.5-2.1-1.6-2.7C152.8,17.6,151.7,17.3,150.4,17.3z M150.3,25.6l-7.7,0l0,7.7
			l7.8,0c1.5,0,2.8-0.3,3.7-0.9c1.1-0.7,1.7-1.7,1.7-3c0-1.4-0.6-2.4-1.8-3.1C153.1,25.8,151.9,25.6,150.3,25.6z"/>
		<path class="st0" d="M150.1,35.2l-9.5,0l0-19.7l9.8,0c1.8,0,3.4,0.4,4.6,1.2c1.4,1,2.2,2.4,2.2,4.2c0,1.6-0.7,2.9-2.2,3.9
			c1.9,0.9,2.8,2.5,2.8,4.7c0,2-0.9,3.6-2.6,4.6C153.9,34.8,152.2,35.2,150.1,35.2z M141.8,34l8.3,0c1.8,0,3.4-0.3,4.5-1
			c1.4-0.8,2-2,2-3.6c0-2.1-1-3.4-3.2-4L152,25l1.4-0.6c1.8-0.8,2.7-1.9,2.7-3.4s-0.5-2.5-1.7-3.3c-1-0.7-2.3-1-4-1l-8.7,0l0,17.3
			L141.8,34z M150.5,33.9l-8.4,0l0-8.9l8.3,0c1.6,0,3,0.3,4,0.8c1.4,0.8,2.1,2,2.1,3.6c0,1.5-0.7,2.7-2,3.5
			C153.4,33.5,152.1,33.9,150.5,33.9z M143.2,32.7l7.3,0c1.4,0,2.6-0.3,3.4-0.8c1-0.6,1.5-1.4,1.5-2.5c0-1.2-0.5-2-1.5-2.6
			c-0.9-0.5-2-0.7-3.5-0.7l-7.2,0L143.2,32.7z M150.4,24.9l-8.3,0l0-8.1l8.4,0c1.4,0,2.6,0.3,3.5,0.8c1.2,0.7,1.9,1.8,1.9,3.2
			c0,1.4-0.6,2.5-1.8,3.2C153.1,24.6,151.8,24.9,150.4,24.9z M143.2,23.7l7.2,0c1.2,0,2.3-0.2,3-0.7c0.8-0.5,1.3-1.3,1.3-2.3
			s-0.4-1.7-1.3-2.2c-0.8-0.4-1.8-0.7-3-0.7l-7.2,0L143.2,23.7z"/>
	</g>
	<g>
		<path class="st0" d="M161.3,34.6l0-18.6l1.4,0l0,18.6L161.3,34.6z"/>
		<path class="st0" d="M163.3,35.2l-2.5,0l0-19.7l2.5,0L163.3,35.2z M161.9,34l0.3,0l0-17.4l-0.3,0L161.9,34z"/>
	</g>
	<g>
		<path class="st0" d="M173.6,34.9c-2.2,0-3.9-0.6-5.2-1.9c-1.3-1.3-1.9-3-1.9-5c0-2.1,0.7-3.8,2-5.1c1.3-1.3,3-1.9,5.2-1.9
			c2.1,0,3.8,0.6,5.1,1.9c1.3,1.3,1.9,3,1.9,5.1c0,2.1-0.7,3.8-2,5.1C177.5,34.3,175.8,34.9,173.6,34.9z M177.9,23.8
			c-1-1-2.4-1.6-4.2-1.6c-1.8,0-3.1,0.5-4.2,1.5c-1,1-1.5,2.4-1.5,4.2c0,1.7,0.5,3.1,1.5,4.1s2.4,1.5,4.1,1.5c1.7,0,3.1-0.5,4.1-1.5
			c1-1,1.5-2.4,1.5-4.1C179.4,26.2,178.9,24.8,177.9,23.8z"/>
		<path class="st0" d="M173.6,35.5c-2.3,0-4.2-0.7-5.6-2.1c-1.4-1.4-2.1-3.2-2.1-5.4c0-2.3,0.7-4.1,2.1-5.5c1.4-1.4,3.3-2.1,5.5-2.1
			c2.3,0,4.1,0.7,5.5,2.1s2.1,3.2,2.1,5.5c0,2.3-0.7,4.1-2.1,5.5C177.8,34.8,175.9,35.5,173.6,35.5z M173.7,21.5
			c-2,0-3.6,0.6-4.8,1.7c-1.2,1.2-1.8,2.7-1.8,4.7c0,1.9,0.6,3.4,1.7,4.6c1.2,1.2,2.7,1.8,4.8,1.8c2,0,3.6-0.6,4.8-1.7
			c1.2-1.2,1.8-2.7,1.8-4.7s-0.6-3.5-1.8-4.7C177.2,22,175.7,21.5,173.7,21.5z M173.7,34.2c-1.9,0-3.4-0.6-4.5-1.7
			c-1.1-1.1-1.7-2.7-1.7-4.5c0-1.9,0.6-3.4,1.7-4.6c1.1-1.1,2.7-1.7,4.6-1.7c1.9,0,3.5,0.6,4.6,1.7l0,0c1.1,1.2,1.7,2.7,1.7,4.5
			c0,1.9-0.6,3.4-1.7,4.5C177.1,33.6,175.5,34.2,173.7,34.2z M173.7,22.8c-1.6,0-2.8,0.5-3.8,1.4c-0.9,0.9-1.4,2.2-1.4,3.8
			c0,1.6,0.5,2.8,1.4,3.7s2.2,1.4,3.7,1.4c1.6,0,2.8-0.5,3.7-1.4c0.9-0.9,1.4-2.2,1.4-3.7c0-1.6-0.4-2.8-1.3-3.8l0,0
			C176.5,23.2,175.3,22.8,173.7,22.8z"/>
	</g>
	<g>
		<path class="st0" d="M194.8,33.9c-1.1,0.7-2.4,1-3.9,1c-2.2,0-3.9-0.6-5.1-1.8c-1.3-1.2-1.9-2.9-1.9-4.9c0-2.2,0.6-3.9,1.9-5.2
			c1.3-1.3,3.1-2,5.4-2c1.4,0,2.6,0.3,3.6,0.9c1.1,0.7,1.9,1.8,2.3,3.2l-1.3,0.6c-0.6-2.3-2.2-3.5-4.7-3.5c-1.9,0-3.3,0.5-4.3,1.6
			c-1,1.1-1.5,2.5-1.5,4.3c0,1.7,0.5,3,1.5,4s2.4,1.5,4.1,1.5c1.2,0,2.3-0.3,3.2-0.8c1-0.6,1.6-1.6,1.9-3l1.3,0.6
			C196.9,31.9,196.1,33.1,194.8,33.9z"/>
		<path class="st0" d="M190.9,35.5c-2.3,0-4.1-0.7-5.5-2c-1.4-1.3-2.1-3.1-2.1-5.3c0-2.3,0.7-4.2,2.1-5.6c1.4-1.4,3.3-2.2,5.8-2.2
			c1.5,0,2.8,0.3,3.9,1c1.3,0.8,2.1,2,2.5,3.6l0.1,0.4l-2.3,1.1l-0.2-0.7c-0.6-2.1-1.9-3.1-4.1-3.1c-1.7,0-3,0.5-3.9,1.5
			c-0.9,1-1.4,2.3-1.4,3.9c0,1.5,0.4,2.7,1.3,3.6c0.9,0.9,2.1,1.3,3.7,1.3c1.1,0,2.1-0.2,2.9-0.7c0.8-0.5,1.4-1.4,1.6-2.6l0.1-0.7
			l2.4,1l-0.1,0.5c-0.4,1.7-1.3,3-2.7,3.9l0,0C194,35.1,192.5,35.5,190.9,35.5z M191.2,21.5c-2.1,0-3.8,0.6-5,1.8
			c-1.2,1.2-1.8,2.8-1.8,4.8c0,1.9,0.6,3.4,1.7,4.5c1.2,1.1,2.7,1.7,4.7,1.7c1.4,0,2.6-0.3,3.6-0.9c1-0.6,1.7-1.5,2-2.7l-0.3-0.1
			c-0.4,1.2-1,2.1-2,2.7s-2.2,0.9-3.5,0.9c-1.9,0-3.4-0.6-4.5-1.6c-1.1-1.1-1.6-2.6-1.6-4.4c0-1.9,0.6-3.5,1.7-4.7
			c1.1-1.2,2.7-1.8,4.7-1.8c2.5,0,4.2,1.1,5,3.3l0.3-0.1c-0.4-1.1-1-1.9-1.9-2.5C193.6,21.8,192.5,21.5,191.2,21.5z"/>
	</g>
	<g>
		<path class="st0" d="M212.8,34.6l-7.1-7.4l-3.1,2.2l0,5.3l-1.4,0l0-18.7l1.4,0l0,11.7L212,21l2.5,0.1l-7.7,5.3l7.8,8.2
			C214.6,34.6,212.8,34.6,212.8,34.6z"/>
		<path class="st0" d="M216,35.2l-3.4,0l-6.9-7.3l-2.4,1.7l0,5.6l-2.5,0l0-19.7l2.5,0l0,11.1l8.7-6.2l4.4,0.1l-8.5,5.9L216,35.2z
			 M213,34l0.3,0l-7.4-7.8l6.8-4.7l-0.6,0L202,28.7l0-12.1l-0.3,0l0,17.4l0.3,0l0-5l3.7-2.6L213,34z"/>
	</g>
	<g>
		<path class="st0" d="M230.1,34.6l0-18.6l14.1,0l0,1.3l-12.8,0l0,7l11.3,0l0,1.3l-11.3,0l0,7.7l12.9,0l0,1.3L230.1,34.6z"/>
		<path class="st0" d="M244.9,35.2l-15.4,0l0-19.7l15.2,0l0,2.4l-12.7,0l0,5.9l11.3,0l0,2.4l-11.3,0l0,6.6l12.9,0L244.9,35.2z
			 M230.6,34l13.1,0l0-0.2l-12.9,0l0-8.8l11.3,0l0-0.1l-11.3,0l0-8.1l12.8,0l0-0.2l-13,0L230.6,34L230.6,34z"/>
	</g>
	<g>
		<path class="st0" d="M258.4,34.6l-5.4-5.9l-5.4,5.9l-1.8,0l6.3-6.9l-5.7-6.4l1.8,0l4.8,5.5l4.9-5.5l1.8,0l-5.7,6.4l6.3,6.9
			L258.4,34.6z"/>
		<path class="st0" d="M261.5,35.2l-3.3,0l-5.1-5.6l-5.1,5.6l-3.3,0l6.8-7.5l-6.2-7l3.3,0l4.5,5.2l4.6-5.2l3.3,0l-6.2,7L261.5,35.2z
			 M258.7,34l0.3,0l-5.8-6.4l5.2-5.9l-0.3,0l-5.2,5.8l-5-5.8l-0.3,0l5.2,5.9L247,34l0.3,0l5.6-6.2L258.7,34z"/>
	</g>
	<g>
		<path class="st0" d="M269.7,35.1c-2.4,0-4.2-0.9-5.4-2.6l0,6.7l-1.4,0l0-18l1.4,0l0,2.3c1.2-1.8,3-2.6,5.4-2.6
			c2.2,0,3.9,0.7,5.1,2c1.1,1.3,1.7,3,1.7,5c0,2.2-0.6,3.9-1.8,5.2C273.6,34.4,271.9,35.1,269.7,35.1z M273.8,23.9
			c-0.9-1.1-2.3-1.7-3.9-1.7c-1.7,0-3.1,0.5-4.1,1.6c-1,1-1.5,2.4-1.5,4.1c0,1.8,0.4,3.2,1.3,4.2c0.9,1.1,2.4,1.6,4.2,1.6
			c1.7,0,3-0.6,4-1.7c0.9-1.1,1.3-2.4,1.3-4.1C275.2,26.3,274.7,24.9,273.8,23.9z"/>
		<path class="st0" d="M264.9,39.7l-2.5,0l0-19.1l2.5,0l0,1.4c1.2-1.1,2.9-1.7,4.9-1.7c2.3,0,4.2,0.7,5.5,2.2
			c1.2,1.4,1.9,3.2,1.9,5.4c0,2.3-0.6,4.2-1.9,5.6c-1.3,1.4-3.1,2.1-5.4,2.1c-2,0-3.6-0.6-4.9-1.7l0,5.8L264.9,39.7z M263.5,38.6
			l0.3,0l0-8l1,1.5c1.1,1.6,2.7,2.4,5,2.4c2,0,3.5-0.6,4.6-1.8c1.1-1.2,1.6-2.8,1.6-4.8c0-1.9-0.5-3.5-1.6-4.7s-2.6-1.8-4.7-1.8
			c-2.2,0-3.9,0.8-5,2.4l-1,1.5l0-3.6l-0.3,0l0,16.9L263.5,38.6z M269.9,34.4c-2,0-3.6-0.6-4.6-1.8c-1-1.1-1.5-2.7-1.5-4.6
			c0-1.9,0.6-3.4,1.7-4.5c1.1-1.2,2.6-1.7,4.5-1.7c1.8,0,3.3,0.6,4.4,1.9c1,1.2,1.5,2.7,1.5,4.4c0,1.8-0.5,3.3-1.4,4.5
			C273.2,33.7,271.7,34.4,269.9,34.4z M269.9,22.8c-1.6,0-2.7,0.5-3.7,1.4c-0.9,0.9-1.4,2.2-1.4,3.8c0,1.7,0.4,3,1.2,3.9
			c0.8,1,2.1,1.5,3.8,1.5c1.6,0,2.7-0.5,3.6-1.5c0.8-0.9,1.2-2.2,1.2-3.8c0-1.5-0.4-2.8-1.2-3.7l0,0
			C272.6,23.2,271.4,22.8,269.9,22.8z"/>
	</g>
	<g>
		<path class="st0" d="M280.6,34.6l0-18.6l1.4,0l0,18.6L280.6,34.6z"/>
		<path class="st0" d="M282.6,35.2l-2.5,0l0-19.7l2.5,0L282.6,35.2z M281.2,34l0.3,0l0-17.4l-0.3,0L281.2,34z"/>
	</g>
	<g>
		<path class="st0" d="M292.9,34.9c-2.2,0-3.9-0.6-5.2-1.9c-1.3-1.3-1.9-3-1.9-5c0-2.1,0.7-3.8,2-5.1c1.3-1.3,3-1.9,5.2-1.9
			c2.1,0,3.8,0.6,5.1,1.9c1.3,1.3,1.9,3,1.9,5.1s-0.7,3.8-2,5.1C296.8,34.3,295.1,34.9,292.9,34.9z M297.1,23.8
			c-1-1-2.4-1.6-4.2-1.6c-1.8,0-3.1,0.5-4.2,1.5c-1,1-1.5,2.4-1.5,4.2c0,1.7,0.5,3.1,1.5,4.1s2.4,1.5,4.1,1.5s3.1-0.5,4.1-1.5
			s1.5-2.4,1.5-4.1C298.6,26.2,298.1,24.8,297.1,23.8z"/>
		<path class="st0" d="M292.9,35.5c-2.3,0-4.2-0.7-5.6-2.1c-1.4-1.4-2.1-3.2-2.1-5.4c0-2.3,0.7-4.1,2.1-5.5s3.3-2.1,5.5-2.1
			c2.3,0,4.1,0.7,5.5,2.1s2.1,3.2,2.1,5.5s-0.7,4.1-2.1,5.5C297.1,34.8,295.2,35.5,292.9,35.5z M293,21.5c-2,0-3.6,0.6-4.8,1.7
			c-1.2,1.2-1.8,2.7-1.8,4.7c0,1.9,0.6,3.4,1.7,4.6c1.2,1.2,2.7,1.8,4.8,1.8c2,0,3.6-0.6,4.8-1.7c1.2-1.2,1.8-2.7,1.8-4.7
			s-0.6-3.5-1.8-4.7C296.5,22,295,21.5,293,21.5z M293,34.2c-1.9,0-3.4-0.6-4.5-1.7c-1.1-1.1-1.7-2.7-1.7-4.5c0-1.9,0.6-3.4,1.7-4.6
			c1.1-1.1,2.7-1.7,4.6-1.7s3.5,0.6,4.6,1.7l0,0c1.1,1.2,1.7,2.7,1.7,4.5c0,1.9-0.6,3.4-1.7,4.5C296.4,33.6,294.8,34.2,293,34.2z
			 M293,22.8c-1.6,0-2.8,0.5-3.8,1.4c-0.9,0.9-1.4,2.2-1.4,3.8c0,1.6,0.5,2.8,1.4,3.7c0.9,0.9,2.2,1.4,3.7,1.4
			c1.6,0,2.8-0.5,3.7-1.4s1.4-2.2,1.4-3.7c0-1.6-0.4-2.8-1.3-3.8l0,0C295.8,23.2,294.6,22.8,293,22.8z"/>
	</g>
	<g>
		<path class="st0" d="M306.5,24.4c-0.8,1.3-1.2,2.9-1.2,4.8l0,5.4l-1.4,0l0-13.4l1.4,0l0,2.3c0.3-0.4,0.6-0.8,1-1.1
			c1.2-1,2.8-1.5,4.8-1.5l0,1.3C309,22.2,307.4,22.9,306.5,24.4z"/>
		<path class="st0" d="M305.8,35.2l-2.5,0l0-14.6l2.5,0l0,1.4l0.1-0.1c1.3-1,3-1.6,5.1-1.6l0.6,0l0,2.4l-0.6,0
			c-1.9,0-3.3,0.6-4.2,1.9c-0.7,1.2-1.1,2.7-1.1,4.5l0,6.1L305.8,35.2z M304.4,34l0.3,0l0-4.8c0-2.1,0.4-3.8,1.3-5.1l0,0
			c1-1.5,2.5-2.3,4.5-2.4l0-0.2c-1.6,0.1-2.9,0.5-3.9,1.3c-0.4,0.3-0.7,0.6-0.9,1l-1,1.5l0-3.5l-0.3,0L304.4,34z"/>
	</g>
	<g>
		<path class="st0" d="M315.4,28.4c0.2,3.5,2,5.2,5.5,5.2c2.6,0,4.4-1.1,5.2-3.3l1.4,0c-0.5,1.7-1.4,2.9-2.7,3.6
			c-1.1,0.6-2.4,0.9-4,0.9c-2.2,0-4-0.6-5.1-1.9c-1.1-1.2-1.7-2.9-1.7-5c0-2.1,0.6-3.8,1.9-5.1c1.3-1.3,3-1.9,5-1.9
			c2.1,0,3.8,0.6,5,1.8c1.2,1.2,1.9,2.8,1.9,4.7l0,1L315.4,28.4z M321,22.2c-1.6,0-2.8,0.4-3.8,1.3s-1.6,2.1-1.7,3.6l10.9,0
			c-0.1-1.5-0.6-2.7-1.6-3.6C323.8,22.6,322.5,22.2,321,22.2z"/>
		<path class="st0" d="M320.8,35.5c-2.4,0-4.3-0.7-5.6-2.1c-1.2-1.3-1.8-3.1-1.8-5.4c0-2.2,0.7-4.1,2.1-5.5c1.4-1.4,3.2-2.1,5.4-2.1
			c2.2,0,4.1,0.6,5.4,1.9c1.4,1.3,2.1,3,2.1,5.2l0,1.5L316,29c0.3,2.8,1.9,4.1,4.9,4.1c2.4,0,4-0.9,4.7-2.9l0.1-0.4l2.6,0l-0.2,0.7
			c-0.6,1.9-1.6,3.2-3,3.9C323.9,35.1,322.5,35.5,320.8,35.5z M321,21.5c-2,0-3.5,0.6-4.6,1.8c-1.2,1.2-1.7,2.7-1.7,4.7
			s0.5,3.5,1.5,4.6c1.1,1.2,2.6,1.8,4.7,1.8c1.4,0,2.7-0.3,3.7-0.9c1-0.5,1.7-1.4,2.2-2.6l-0.3,0c-1,2.2-2.9,3.3-5.6,3.3
			c-3.8,0-5.9-2-6.1-5.7l0-0.6l12.5,0l0-0.4c0-1.8-0.6-3.3-1.7-4.3C324.5,22,322.9,21.5,321,21.5z M326.9,27.7l-12.2,0l0.1-0.6
			c0.2-1.7,0.8-3,1.9-4s2.5-1.5,4.2-1.5s3.1,0.5,4.2,1.5s1.7,2.3,1.8,4L326.9,27.7z M316,26.6l9.7,0c-0.2-1.1-0.6-2-1.4-2.6
			c-0.9-0.8-2-1.2-3.4-1.2s-2.6,0.4-3.4,1.2C316.7,24.6,316.3,25.5,316,26.6z"/>
	</g>
	<g>
		<path class="st0" d="M334.1,24.4c-0.8,1.3-1.2,2.9-1.2,4.8l0,5.4l-1.4,0l0-13.4l1.4,0l0,2.3c0.3-0.4,0.6-0.8,1-1.1
			c1.2-1,2.8-1.5,4.8-1.5l0,1.3C336.6,22.2,335.1,22.9,334.1,24.4z"/>
		<path class="st0" d="M333.5,35.2l-2.5,0l0-14.6l2.5,0l0,1.4l0.1-0.1c1.3-1,3-1.6,5.1-1.6l0.6,0l0,2.4l-0.6,0
			c-1.9,0-3.3,0.6-4.2,1.9c-0.7,1.2-1.1,2.7-1.1,4.5l0,6.1L333.5,35.2z M332.1,34l0.3,0l0-4.8c0-2.1,0.4-3.8,1.3-5.1l0,0
			c1-1.5,2.5-2.3,4.5-2.4l0-0.2c-1.6,0.1-2.9,0.5-3.9,1.3c-0.4,0.3-0.7,0.6-0.9,1l-1,1.5l0-3.5l-0.3,0L332.1,34z"/>
	</g>
</g>
<g>
	<g>
		<path class="st0" d="M28.8,29.6L14,14.8L28.8,0l14.8,14.8L28.8,29.6z M15.6,14.8L28.8,28L42,14.8L28.8,1.6L15.6,14.8z"/>
	</g>
	<g>
		<path class="st0" d="M42.8,43.6L28,28.8L42.8,14l14.8,14.8L42.8,43.6z M29.6,28.8L42.8,42L56,28.8L42.8,15.6L29.6,28.8z"/>
	</g>
	<g>
		<path class="st0" d="M14.8,43.6L0,28.8L14.8,14l14.8,14.8L14.8,43.6z M1.6,28.8L14.8,42L28,28.8L14.8,15.6L1.6,28.8z"/>
	</g>
	<g>
		<rect x="0.8" y="28.2" class="st0" width="28.1" height="1.1"/>
	</g>
</g>
</svg>
