<?xml version="1.0" encoding="utf-8"?>
<!-- Generator: Adobe Illustrator 17.0.0, SVG Export Plug-In . SVG Version: 6.00 Build 0)  -->
<!DOCTYPE svg PUBLIC "-//W3C//DTD SVG 1.1//EN" "http://www.w3.org/Graphics/SVG/1.1/DTD/svg11.dtd">
<svg version="1.1" id="Layer_1" xmlns="http://www.w3.org/2000/svg" xmlns:xlink="http://www.w3.org/1999/xlink" x="0px" y="0px"
	 width="1031.398px" height="339.42px" viewBox="0 0 1031.398 339.42" enable-background="new 0 0 1031.398 339.42"
	 xml:space="preserve">
<g>
	<g>
		<polygon fill="#FFFFFF" points="861.65,85.804 854.425,78.579 770.328,162.676 686.232,78.579 679.006,85.804 763.103,169.901 
			679.006,253.998 686.232,261.222 770.328,177.126 854.425,261.222 861.65,253.998 777.553,169.901 		"/>
	</g>
	<path fill="#FFFFFF" d="M596.024,77.934l-92.38,92.38l90.32,90.32l92.38-92.38L596.024,77.934z M518.095,170.314l77.929-77.929
		l70.938,70.938h-70.774v10.219h70.417l-72.641,72.641L518.095,170.314z"/>
	<g>
		<polygon fill="#FFFFFF" points="944.8,247.035 868.931,171.166 946.86,93.237 1016.946,163.323 1031.398,163.323 946.86,78.786 
			854.48,171.166 944.8,261.486 1031.041,175.245 1016.59,175.245 		"/>
	</g>
</g>
<g>
	<g>
		<path fill="#FFFFFF" d="M224.085,230.399L108.886,115.2L224.085,0l115.2,115.2L224.085,230.399z M121.241,115.2l102.844,102.843
			L326.929,115.2L224.085,12.356L121.241,115.2z"/>
	</g>
	<g>
		<path fill="#FFFFFF" d="M333.107,339.42l-115.2-115.199l115.2-115.199l115.199,115.199L333.107,339.42z M230.263,224.221
			l102.844,102.844L435.95,224.221L333.107,121.378L230.263,224.221z"/>
	</g>
	<g>
		<path fill="#FFFFFF" d="M115.2,339.42L0,224.221l115.2-115.199l115.199,115.199L115.2,339.42z M12.355,224.221L115.2,327.065
			l102.844-102.844L115.2,121.378L12.355,224.221z"/>
	</g>
	<g>
		<rect x="6.062" y="219.709" fill="#FFFFFF" width="218.421" height="8.737"/>
	</g>
</g>
</svg>
