<svg viewBox="0 0 560.01 165.07" xmlns="http://www.w3.org/2000/svg">
	<path d="M55.023 165.07l55.024-55.023H0z" fill="none" stroke="#fff" stroke-width="5px"/>
	<path d="m110.05-1e-3 55.023 55.023-55.023 55.023-55.023-55.023z" fill="none" stroke="#fff" stroke-width="5px"/>
	<path d="m165.07 55.023 55.023 55.023-55.023 55.023-55.023-55.023z" fill="none" stroke="#fff" stroke-width="5px"/>
	<path d="m0 110.05h110.05l-55.024-55.024z" fill="none" stroke="#fff" stroke-width="5px"/>
	<g fill="#fff">
		<path d="m516.53 127.58-45.042-45.042 45.042-45.041 35.054 35.054h8.427l-43.481-43.481-53.468 53.468 53.468 53.468 43.481-43.481h-8.427zm-206.21 0-45.041-45.042 45.041-45.041 31.55 31.549h8.426l-39.976-39.976-53.468 53.468 53.468 53.468 50.857-53.485h-8.427z"/>
		<path d="m316.66 85.513h8.427l-2.978-2.978 2.978-2.977h-8.427l-2.977 2.977z"/>
		<path d="m318.37 85.513h39.947l2.978-2.978-2.978-2.977h-39.947zm43.208-49.61 5.615 5.615v-3.968h3.968l-5.615-5.615h-3.968zm101.2 93.264-5.614-5.614v3.968h-3.968l5.614 5.614h3.968z"/>
		<path d="m362.8 37.13 3.971-3.97 94.43 94.43-3.97 3.97zm96.012-5.195-5.614 5.615h3.968v3.968l5.614-5.615v-3.968zm-93.264 101.2 5.615-5.614h-3.968v-3.968l-5.615 5.614v3.968z"/>
		<path d="m457.58 33.155 3.97 3.97-94.43 94.43-3.97-3.97z"/>
	</g>
</svg>