<?xml version="1.0" encoding="utf-8"?>
<!-- Generator: Adobe Illustrator 17.0.0, SVG Export Plug-In . SVG Version: 6.00 Build 0)  -->
<!DOCTYPE svg PUBLIC "-//W3C//DTD SVG 1.1//EN" "http://www.w3.org/Graphics/SVG/1.1/DTD/svg11.dtd">
<svg version="1.1" id="Layer_1" xmlns="http://www.w3.org/2000/svg" xmlns:xlink="http://www.w3.org/1999/xlink" x="0px" y="0px"
	 width="2834.65px" height="2834.65px" viewBox="0 0 2834.65 2834.65" enable-background="new 0 0 2834.65 2834.65"
	 xml:space="preserve">
<g>
	<g>
		<path fill="#545454" d="M693.62,1499.64c-15.042,16.714-32.592,25.071-51.813,25.071c-10.864,0-20.892-2.507-30.085-6.686
			c-9.193-5.014-17.549-10.864-24.235-18.385c-6.686-7.521-11.7-16.714-15.878-26.742c-4.178-10.028-5.85-20.057-5.85-30.085
			c0-10.864,1.671-20.892,5.85-30.92c3.343-10.028,9.193-18.385,15.878-25.906c6.685-7.521,15.042-13.371,23.399-18.385
			c9.193-4.178,19.221-6.686,30.085-6.686c7.521,0,15.042,0.836,21.728,2.507c6.686,1.671,12.535,4.178,17.549,7.521
			c5.014,3.343,9.193,6.686,13.371,10.864c3.343,4.178,6.685,9.193,9.193,14.207l-12.535,8.357
			c-5.014-10.028-12.535-17.549-20.892-22.563c-8.357-5.014-18.385-6.686-29.249-6.686c-9.193,0-16.714,1.671-24.235,5.85
			c-7.521,4.178-13.371,9.193-18.385,15.042c-5.014,6.685-9.193,13.371-11.7,21.728c-2.507,8.357-4.178,16.714-4.178,25.071
			c0,9.193,1.671,17.549,5.014,25.906c3.343,8.357,7.521,15.042,12.535,21.728c5.85,5.85,11.7,10.864,19.221,15.042
			c7.521,3.343,15.042,5.85,24.235,5.85c9.193,0,18.385-2.507,26.742-6.686s16.714-10.864,24.235-20.892v-26.742h-35.935v-12.535
			h49.306v80.226H693.62V1499.64z"/>
		<path fill="#545454" d="M641.808,1528.053c-11.7,0-21.728-2.507-31.756-7.521c-9.193-5.014-17.549-11.7-25.071-19.221
			c-6.686-8.357-12.535-17.549-16.714-27.578c-4.178-10.028-5.85-20.892-5.85-31.756s1.671-21.728,5.85-32.592
			c4.178-10.028,9.193-19.221,15.878-27.578c6.686-7.521,15.042-14.207,25.071-18.385c9.193-5.014,20.056-6.685,30.92-6.685
			c8.357,0,15.878,0.836,22.564,2.507c6.686,1.671,13.371,4.178,18.385,7.521c5.014,3.343,10.028,7.521,14.207,11.7
			c4.178,4.178,7.521,9.193,10.028,15.042l0.836,2.507l-17.549,11.7l-1.671-3.343c-5.014-9.193-11.7-16.714-19.221-20.892
			c-8.357-4.178-17.549-6.686-27.578-6.686c-8.357,0-15.878,1.671-22.563,5.014c-6.686,3.343-12.535,8.357-17.549,14.207
			s-8.357,13.371-10.864,20.892c-2.507,7.521-4.178,15.878-4.178,24.235c0,8.357,1.671,16.714,4.178,25.071
			c3.343,7.521,7.521,15.042,12.535,20.892c5.014,5.85,11.7,10.864,18.385,14.207c6.685,3.343,14.207,5.014,22.563,5.014
			s17.549-1.671,25.071-5.85c7.521-4.178,15.042-10.028,22.564-19.221v-22.564h-35.935v-18.385h55.991v86.076h-20.057v-19.221
			C676.071,1521.368,659.357,1528.053,641.808,1528.053z M640.972,1363.423c-10.028,0-20.057,2.507-28.413,6.686
			c-8.357,4.178-16.714,10.028-22.563,17.549c-6.686,7.521-11.7,15.878-15.042,25.071c-3.343,9.193-5.014,19.221-5.014,30.085
			c0,10.028,1.671,20.057,5.85,29.249c3.343,9.193,9.193,18.385,15.042,25.906c6.686,7.521,14.207,13.371,23.399,18.385
			c8.357,4.178,18.385,6.686,29.249,6.686c18.385,0,35.099-8.357,50.141-24.235l5.85-5.85v27.578h7.521v-73.54h-43.456v5.85h35.935
			v30.92l-0.836,0.836c-8.357,10.028-16.714,16.714-25.071,21.728c-9.193,4.178-18.385,6.686-28.413,6.686
			c-9.193,0-17.549-1.671-25.906-5.85c-7.521-4.178-14.207-9.193-20.057-15.878c-5.85-6.686-10.028-14.207-13.371-22.564
			c-3.343-8.357-5.014-17.549-5.014-27.578c0-9.193,1.671-17.549,4.178-25.906c2.507-8.357,6.685-15.878,12.535-22.564
			c5.014-6.685,11.7-11.7,19.221-15.878s16.714-5.85,25.906-5.85c11.7,0,21.728,2.507,30.92,7.521
			c8.357,4.178,15.042,11.7,20.057,20.057l7.521-5.014c-2.507-4.178-5.014-7.521-7.521-10.864
			c-3.343-4.178-7.521-7.521-12.535-10.864c-5.014-3.343-10.028-5.014-16.714-6.685
			C655.179,1364.259,648.493,1363.423,640.972,1363.423z"/>
	</g>
	<g>
		<path fill="#545454" d="M757.968,1361.752l53.484,71.033l53.484-71.033h17.549l-62.677,82.733l61.005,80.226h-17.549
			l-51.813-68.526l-51.813,68.526h-18.385l61.005-80.226l-61.841-82.733H757.968z"/>
		<path fill="#545454" d="M886.664,1527.218h-25.071l-50.141-66.855l-50.141,66.855h-25.906l62.677-83.569l-65.184-85.24h25.906
			l51.813,68.526l51.813-68.526h25.071l-65.184,85.24L886.664,1527.218z M864.1,1520.532h10.028l-58.498-76.883l60.169-79.39
			h-10.028l-55.155,72.705l-55.155-72.705h-10.028l60.169,79.39l-58.498,76.883h10.028l52.648-71.033L864.1,1520.532z"/>
	</g>
	<g>
		<path fill="#545454" d="M905.049,1441.142c0-10.028,1.671-19.221,5.014-29.249c3.343-10.028,8.357-18.385,15.042-25.906
			c6.686-7.521,15.042-14.207,24.235-18.385c9.193-5.014,20.892-7.521,32.592-7.521c14.207,0,26.742,3.343,36.77,10.028
			c10.028,6.685,17.549,15.042,22.563,25.906l-12.535,7.521c-2.507-5.014-5.85-10.028-9.193-13.371
			c-3.343-3.343-7.521-6.685-11.7-9.193c-4.178-2.507-8.357-4.178-13.371-5.014c-4.178-0.836-9.193-1.671-13.371-1.671
			c-10.028,0-18.385,1.671-25.906,5.85s-13.371,9.193-19.221,15.878c-5.014,6.685-9.193,13.371-11.7,21.728
			c-2.507,8.357-4.178,15.878-4.178,24.235c0,9.193,1.671,17.549,5.014,25.906c3.343,8.357,7.521,15.878,12.535,21.728
			c5.014,6.685,11.7,11.7,19.221,15.042c7.521,3.343,15.042,5.85,24.235,5.85c4.178,0,9.193-0.836,14.207-1.671
			s9.193-3.343,14.207-5.85c4.178-2.507,8.357-5.85,12.535-9.193c4.178-3.343,6.686-8.357,9.193-13.371l13.371,6.686
			c-2.507,5.85-5.85,11.7-10.864,15.878c-5.014,5.014-10.028,8.357-15.878,11.7c-5.85,3.343-11.7,5.85-18.385,7.521
			c-6.686,1.671-12.535,2.507-19.221,2.507c-10.864,0-21.728-2.507-30.92-7.521s-17.549-10.864-24.235-19.221
			c-6.686-7.521-11.7-16.714-15.878-26.742C906.72,1462.034,905.049,1452.006,905.049,1441.142z"/>
		<path fill="#545454" d="M981.096,1528.053c-11.7,0-22.563-2.507-31.756-7.521c-10.028-5.014-18.385-11.7-25.071-20.057
			c-6.685-8.357-12.535-17.549-15.878-27.578c-4.178-10.028-5.85-20.892-5.85-31.756c0-10.028,1.671-20.057,5.014-30.085
			c3.343-10.028,9.193-19.221,15.878-26.742c6.685-7.521,15.042-14.207,25.071-19.221c10.028-5.014,21.728-7.521,34.263-7.521
			c15.042,0,28.413,3.343,38.442,10.028c10.864,6.685,18.385,15.878,24.235,26.742l0.836,2.507l-17.549,10.864l-1.671-3.343
			c-2.507-5.014-5.014-9.193-9.193-12.535c-3.343-3.343-7.521-5.85-11.7-8.357c-4.178-2.507-8.357-3.343-12.535-5.014
			c-4.178-0.836-8.357-1.671-12.535-1.671c-9.193,0-17.549,1.671-24.235,5.85c-6.685,3.343-13.371,8.357-17.549,15.042
			c-5.014,5.85-8.357,13.371-10.864,20.892c-2.507,7.521-3.343,15.878-3.343,23.399c0,8.357,1.671,16.714,4.178,25.071
			c3.343,7.521,7.521,15.042,12.535,20.892s10.864,10.864,18.385,14.207c10.864,5.014,22.564,6.686,35.935,3.343
			c4.178-0.836,9.193-2.507,13.371-5.014s8.357-5.014,11.7-9.193c3.343-3.343,6.686-7.521,9.193-12.535l1.671-2.507l18.385,10.028
			l-0.836,2.507c-2.507,6.686-6.686,12.535-11.7,16.714c-5.014,5.014-10.028,9.193-16.714,12.535
			c-5.85,3.343-12.535,5.85-19.221,7.521C994.467,1527.218,987.782,1528.053,981.096,1528.053z M981.932,1363.423
			c-11.7,0-22.564,2.507-30.92,6.686c-9.193,4.178-16.714,10.864-23.399,17.549c-6.686,7.521-10.864,15.878-14.207,25.071
			c-3.343,9.193-5.014,18.385-5.014,28.413s1.671,20.057,5.014,29.249c3.343,9.193,8.357,18.385,15.042,25.906
			c6.685,7.521,14.207,13.371,23.399,18.385c9.193,5.014,18.385,6.686,29.249,6.686c5.85,0,11.7-0.836,18.385-2.507
			c5.85-1.671,12.535-4.178,17.549-6.686c5.85-3.343,10.864-6.685,15.042-10.864c3.343-3.343,6.686-7.521,9.193-12.535l-7.521-4.178
			c-2.507,4.178-5.014,8.357-8.357,11.7c-4.178,4.178-8.357,7.521-13.371,10.028s-10.028,5.014-15.042,5.85
			c-14.207,3.343-28.413,1.671-40.113-4.178c-7.521-4.178-14.207-9.193-20.056-15.878c-5.85-6.686-10.028-14.207-13.371-22.564
			c-3.343-8.357-5.014-17.549-5.014-26.742c0-8.357,1.671-16.714,4.178-25.071c2.507-8.357,6.685-15.878,11.7-22.563
			c5.014-6.686,11.7-12.535,20.056-16.714c7.521-4.178,16.714-6.686,27.578-6.686c5.014,0,9.193,0.836,14.207,1.671
			s9.193,2.507,14.207,5.014c4.178,2.507,9.193,5.85,12.535,9.193c3.343,3.343,5.85,6.686,8.357,11.7l7.521-4.178
			c-5.014-9.193-11.7-15.878-20.056-21.728C1007.838,1366.766,996.139,1363.423,981.932,1363.423z"/>
	</g>
	<g>
		<path fill="#545454" d="M1253.53,1523.875h-74.376v-155.438h76.883c14.207,0,26.742,3.343,35.935,9.193
			c10.864,7.521,15.878,17.549,15.878,30.92c0,15.042-8.357,25.906-25.071,32.592c20.057,5.85,30.085,18.385,30.085,38.442
			c0,15.042-6.686,26.742-19.221,34.263C1283.615,1520.532,1270.244,1523.875,1253.53,1523.875z M1256.037,1379.301h-65.184v58.498
			h65.184c10.864,0,20.892-2.507,27.578-6.685c8.357-5.014,12.535-12.535,12.535-22.564s-4.178-17.549-13.371-22.564
			C1276.094,1381.808,1266.901,1379.301,1256.037,1379.301z M1256.037,1448.663h-64.348v64.348h65.184
			c12.535,0,23.399-2.507,30.92-7.521c9.193-5.85,14.207-14.207,14.207-25.071c0-11.7-5.014-20.056-15.042-25.906
			C1278.601,1450.334,1268.573,1448.663,1256.037,1448.663z"/>
		<path fill="#545454" d="M1253.53,1528.889h-79.39v-164.63h81.897c15.042,0,28.413,3.343,38.442,10.028
			c11.7,8.357,18.385,20.057,18.385,35.099c0,13.371-5.85,24.235-18.385,32.592c15.878,7.521,23.399,20.892,23.399,39.277
			c0,16.714-7.521,30.085-21.728,38.442C1285.286,1525.546,1271.08,1528.889,1253.53,1528.889z M1184.168,1518.861h69.362
			c15.042,0,28.413-2.507,37.606-8.357c11.7-6.686,16.714-16.714,16.714-30.085c0-17.549-8.357-28.413-26.742-33.427l-12.535-3.343
			l11.699-5.014c15.042-6.685,22.564-15.878,22.564-28.413s-4.178-20.892-14.207-27.578c-8.357-5.85-19.221-8.357-33.427-8.357
			h-72.705v144.574H1184.168z M1256.873,1518.025h-70.198v-73.54h69.362c13.371,0,25.071,2.507,33.427,6.685
			c11.7,6.686,17.55,16.714,17.55,30.085c0,12.535-5.85,22.563-16.714,29.249
			C1281.108,1514.682,1270.244,1518.025,1256.873,1518.025z M1195.868,1507.997h61.005c11.7,0,21.728-2.507,28.413-6.686
			c8.357-5.014,12.535-11.7,12.535-20.892c0-10.028-4.178-16.714-12.535-21.728c-7.521-4.178-16.714-5.85-29.249-5.85h-60.169
			V1507.997z M1256.037,1442.813h-69.362v-67.691h70.198c11.7,0,21.728,2.507,29.249,6.686c10.028,5.85,15.878,15.042,15.878,26.742
			s-5.014,20.892-15.042,26.742C1278.601,1440.306,1268.573,1442.813,1256.037,1442.813z M1195.868,1432.785h60.169
			c10.028,0,19.221-1.671,25.071-5.85c6.686-4.178,10.864-10.864,10.864-19.221c0-8.357-3.343-14.207-10.864-18.385
			c-6.686-3.343-15.042-5.85-25.071-5.85h-60.169V1432.785z"/>
	</g>
	<g>
		<path fill="#545454" d="M1347.963,1523.875v-155.438h11.699v155.438H1347.963z"/>
		<path fill="#545454" d="M1363.841,1528.889h-20.892v-164.63h20.892V1528.889z M1352.141,1518.861h2.507v-145.41h-2.507V1518.861z"
			/>
	</g>
	<g>
		<path fill="#545454" d="M1449.917,1526.382c-18.385,0-32.592-5.014-43.456-15.878c-10.864-10.864-15.878-25.071-15.878-41.784
			c0-17.549,5.85-31.756,16.714-42.62c10.864-10.864,25.071-15.878,43.456-15.878c17.549,0,31.756,5.014,42.62,15.878
			c10.864,10.864,15.878,25.071,15.878,42.62s-5.85,31.756-16.714,42.62C1482.508,1521.368,1468.302,1526.382,1449.917,1526.382z
			 M1485.851,1433.621c-8.357-8.357-20.057-13.371-35.099-13.371s-25.906,4.178-35.099,12.535
			c-8.357,8.357-12.535,20.056-12.535,35.099c0,14.207,4.178,25.906,12.535,34.263c8.357,8.357,20.056,12.535,34.263,12.535
			c14.207,0,25.906-4.178,34.263-12.535c8.357-8.357,12.535-20.056,12.535-34.263
			C1498.387,1453.677,1494.208,1441.978,1485.851,1433.621z"/>
		<path fill="#545454" d="M1449.917,1531.396c-19.221,0-35.099-5.85-46.799-17.549c-11.699-11.7-17.549-26.742-17.549-45.127
			c0-19.221,5.85-34.263,17.549-45.963s27.578-17.549,45.963-17.549c19.221,0,34.263,5.85,45.963,17.549
			c11.699,11.7,17.549,26.742,17.549,45.963c0,19.221-5.85,34.263-17.549,45.963
			C1485.016,1525.546,1469.138,1531.396,1449.917,1531.396z M1450.752,1414.4c-16.714,0-30.085,5.014-40.113,14.207
			c-10.028,10.028-15.042,22.563-15.042,39.277c0,15.878,5.014,28.413,14.207,38.442c10.028,10.028,22.564,15.042,40.113,15.042
			c16.714,0,30.085-5.014,40.113-14.207c10.028-10.028,15.042-22.564,15.042-39.277s-5.014-29.249-15.042-39.277
			C1480.001,1418.578,1467.466,1414.4,1450.752,1414.4z M1450.752,1520.532c-15.878,0-28.413-5.014-37.606-14.207
			c-9.193-9.193-14.207-22.564-14.207-37.606c0-15.878,5.014-28.413,14.207-38.442c9.193-9.193,22.563-14.207,38.442-14.207
			c15.878,0,29.249,5.014,38.442,14.207l0,0c9.193,10.028,14.207,22.563,14.207,37.606c0,15.878-5.014,28.413-14.207,37.606
			C1479.166,1515.518,1465.795,1520.532,1450.752,1520.532z M1450.752,1425.264c-13.371,0-23.399,4.178-31.756,11.7
			c-7.521,7.521-11.7,18.385-11.7,31.756s4.178,23.399,11.7,30.92c7.521,7.521,18.385,11.7,30.92,11.7
			c13.371,0,23.399-4.178,30.92-11.7c7.521-7.521,11.699-18.385,11.699-30.92c0-13.371-3.343-23.399-10.864-31.756l0,0
			C1474.152,1428.607,1464.123,1425.264,1450.752,1425.264z"/>
	</g>
	<g>
		<path fill="#545454" d="M1627.082,1518.025c-9.193,5.85-20.056,8.357-32.592,8.357c-18.385,0-32.592-5.014-42.62-15.042
			c-10.864-10.028-15.878-24.235-15.878-40.949c0-18.385,5.014-32.592,15.878-43.456c10.864-10.864,25.906-16.714,45.127-16.714
			c11.7,0,21.728,2.507,30.085,7.521c9.193,5.85,15.878,15.042,19.221,26.742l-10.864,5.014
			c-5.014-19.221-18.385-29.249-39.277-29.249c-15.878,0-27.578,4.178-35.935,13.371c-8.357,9.193-12.535,20.892-12.535,35.935
			c0,14.207,4.178,25.071,12.535,33.427c8.357,8.357,20.056,12.535,34.263,12.535c10.028,0,19.221-2.507,26.742-6.686
			c8.357-5.014,13.371-13.371,15.878-25.071l10.864,5.014C1644.632,1501.311,1637.946,1511.34,1627.082,1518.025z"/>
		<path fill="#545454" d="M1594.491,1531.396c-19.221,0-34.263-5.85-45.963-16.714c-11.7-10.864-17.55-25.906-17.55-44.291
			c0-19.221,5.85-35.099,17.55-46.798c11.7-11.7,27.578-18.385,48.47-18.385c12.535,0,23.399,2.507,32.592,8.357
			c10.864,6.685,17.55,16.714,20.892,30.085l0.836,3.343l-19.221,9.193l-1.671-5.85c-5.014-17.549-15.878-25.906-34.263-25.906
			c-14.207,0-25.071,4.178-32.592,12.535c-7.521,8.357-11.7,19.221-11.7,32.592c0,12.535,3.343,22.564,10.864,30.085
			c7.521,7.521,17.549,10.864,30.92,10.864c9.193,0,17.549-1.671,24.235-5.85s11.699-11.7,13.371-21.728l0.836-5.85l20.057,8.357
			l-0.836,4.178c-3.343,14.207-10.864,25.071-22.563,32.592l0,0C1620.397,1528.053,1607.861,1531.396,1594.491,1531.396z
			 M1596.998,1414.4c-17.549,0-31.756,5.014-41.784,15.042c-10.028,10.028-15.042,23.399-15.042,40.113
			c0,15.878,5.014,28.413,14.207,37.606c10.028,9.193,22.564,14.207,39.277,14.207c11.7,0,21.728-2.507,30.085-7.521
			c8.357-5.014,14.207-12.535,16.714-22.563l-2.507-0.836c-3.343,10.028-8.357,17.549-16.714,22.563
			c-8.357,5.014-18.385,7.521-29.249,7.521c-15.878,0-28.413-5.014-37.606-13.371c-9.193-9.193-13.371-21.728-13.371-36.77
			c0-15.878,5.014-29.249,14.207-39.277c9.193-10.028,22.563-15.042,39.277-15.042c20.892,0,35.099,9.193,41.784,27.578l2.507-0.836
			c-3.343-9.193-8.357-15.878-15.878-20.892C1617.054,1416.907,1607.861,1414.4,1596.998,1414.4z"/>
	</g>
	<g>
		<path fill="#545454" d="M1777.506,1523.875l-59.334-61.841l-25.906,18.385v44.291h-11.699v-156.273h11.699v97.775l78.555-55.991
			l20.892,0.836l-64.348,44.291l65.184,68.526H1777.506z"/>
		<path fill="#545454" d="M1804.248,1528.889h-28.413l-57.662-61.005l-20.056,14.207v46.798h-20.892v-164.63h20.892v92.761
			l72.705-51.813l36.77,0.836l-71.033,49.306L1804.248,1528.889z M1779.177,1518.861h2.507l-61.841-65.184l56.827-39.277h-5.014
			l-83.569,61.005v-101.954h-2.507v145.41h2.507v-41.784l30.92-21.728L1779.177,1518.861z"/>
	</g>
	<g>
		<path fill="#545454" d="M1922.08,1523.875v-155.438h117.832v10.864h-106.968v58.498h94.433v10.864h-94.433v64.348h107.804v10.864
			H1922.08L1922.08,1523.875z"/>
		<path fill="#545454" d="M2045.761,1528.889h-128.696v-164.63h127.024v20.057h-106.968v49.305h94.433v20.057h-94.433v55.155
			h107.804v20.056H2045.761z M1926.258,1518.861h109.475v-1.671H1927.93v-74.376h94.433v-0.836h-94.433v-67.691h106.968v-1.671
			h-108.639L1926.258,1518.861L1926.258,1518.861z"/>
	</g>
	<g>
		<path fill="#545454" d="M2158.579,1523.875l-45.127-49.306l-45.127,49.306h-15.042l52.648-57.662l-47.634-53.484h15.042
			l40.113,45.963l40.949-45.963h15.042l-47.634,53.484l52.648,57.662H2158.579z"/>
		<path fill="#545454" d="M2184.485,1528.889h-27.577l-42.62-46.798l-42.62,46.798h-27.578l56.827-62.677l-51.812-58.498h27.578
			l37.606,43.456l38.442-43.456h27.577l-51.812,58.498L2184.485,1528.889z M2161.086,1518.861h2.507l-48.47-53.484l43.456-49.305
			h-2.507l-43.456,48.47l-41.784-48.47h-2.507l43.456,49.305l-48.47,53.484h2.507l46.799-51.813L2161.086,1518.861z"/>
	</g>
	<g>
		<path fill="#545454" d="M2253.848,1528.053c-20.056,0-35.099-7.521-45.127-21.728v55.991h-11.699v-150.424h11.699v19.221
			c10.029-15.042,25.071-21.728,45.127-21.728c18.385,0,32.592,5.85,42.62,16.714c9.193,10.864,14.207,25.071,14.207,41.784
			c0,18.385-5.014,32.592-15.042,43.456C2285.604,1522.204,2271.397,1528.053,2253.848,1528.053z M2287.275,1434.456
			c-7.521-9.193-19.221-14.207-32.592-14.207c-14.207,0-25.906,4.178-34.263,13.371c-8.357,8.357-12.535,20.057-12.535,34.263
			c0,15.042,3.343,26.742,10.864,35.099c7.521,9.193,20.057,13.371,35.099,13.371c14.207,0,25.071-5.014,33.427-14.207
			c7.521-9.193,10.864-20.057,10.864-34.263C2298.975,1454.513,2294.796,1442.813,2287.275,1434.456z"/>
		<path fill="#545454" d="M2212.899,1566.495h-20.892v-159.616h20.892v11.7c10.028-9.193,24.235-14.207,40.949-14.207
			c19.221,0,35.099,5.85,45.963,18.385c10.028,11.7,15.878,26.742,15.878,45.127c0,19.221-5.014,35.099-15.878,46.798
			c-10.864,11.7-25.906,17.549-45.127,17.549c-16.714,0-30.085-5.014-40.949-14.207v48.47H2212.899z M2201.199,1557.302h2.507
			v-66.855l8.357,12.535c9.193,13.371,22.564,20.057,41.784,20.057c16.714,0,29.249-5.014,38.442-15.042
			s13.371-23.399,13.371-40.113c0-15.878-4.178-29.249-13.371-39.277s-21.728-15.042-39.277-15.042
			c-18.385,0-32.592,6.686-41.784,20.057l-8.357,12.535v-30.085h-2.507v141.231H2201.199z M2254.683,1522.204
			c-16.714,0-30.085-5.014-38.442-15.042c-8.357-9.193-12.535-22.564-12.535-38.442s5.014-28.413,14.207-37.606
			c9.193-10.028,21.728-14.207,37.606-14.207c15.042,0,27.578,5.014,36.77,15.878c8.357,10.028,12.535,22.563,12.535,36.77
			c0,15.042-4.178,27.578-11.699,37.606C2282.261,1516.354,2269.726,1522.204,2254.683,1522.204z M2254.683,1425.264
			c-13.371,0-22.564,4.178-30.921,11.7c-7.521,7.521-11.699,18.385-11.699,31.756c0,14.207,3.343,25.071,10.028,32.592
			c6.686,8.357,17.55,12.535,31.756,12.535c13.371,0,22.563-4.178,30.085-12.535c6.685-7.521,10.028-18.385,10.028-31.756
			c0-12.535-3.343-23.399-10.028-30.92l0,0C2277.247,1428.607,2267.219,1425.264,2254.683,1425.264z"/>
	</g>
	<g>
		<path fill="#545454" d="M2344.102,1523.875v-155.438h11.7v155.438H2344.102z"/>
		<path fill="#545454" d="M2360.815,1528.889h-20.892v-164.63h20.892V1528.889z M2349.116,1518.861h2.507v-145.41h-2.507V1518.861z"
			/>
	</g>
	<g>
		<path fill="#545454" d="M2446.891,1526.382c-18.385,0-32.592-5.014-43.456-15.878c-10.864-10.864-15.878-25.071-15.878-41.784
			c0-17.549,5.85-31.756,16.714-42.62s25.071-15.878,43.456-15.878c17.55,0,31.756,5.014,42.62,15.878
			c10.864,10.864,15.878,25.071,15.878,42.62s-5.85,31.756-16.714,42.62C2479.483,1521.368,2465.276,1526.382,2446.891,1526.382z
			 M2481.99,1433.621c-8.357-8.357-20.056-13.371-35.099-13.371c-15.042,0-25.906,4.178-35.099,12.535
			c-8.357,8.357-12.535,20.056-12.535,35.099c0,14.207,4.178,25.906,12.535,34.263c8.357,8.357,20.056,12.535,34.263,12.535
			s25.906-4.178,34.263-12.535c8.357-8.357,12.535-20.056,12.535-34.263C2495.361,1453.677,2490.347,1441.978,2481.99,1433.621z"/>
		<path fill="#545454" d="M2446.891,1531.396c-19.221,0-35.099-5.85-46.799-17.549c-11.699-11.7-17.55-26.742-17.55-45.127
			c0-19.221,5.85-34.263,17.55-45.963c11.7-11.7,27.578-17.549,45.963-17.549c19.221,0,34.263,5.85,45.963,17.549
			c11.7,11.7,17.55,26.742,17.55,45.963c0,19.221-5.85,34.263-17.55,45.963C2481.99,1525.546,2466.112,1531.396,2446.891,1531.396z
			 M2447.727,1414.4c-16.714,0-30.085,5.014-40.113,14.207c-10.028,10.028-15.042,22.563-15.042,39.277
			c0,15.878,5.014,28.413,14.207,38.442c10.028,10.028,22.563,15.042,40.113,15.042c16.714,0,30.085-5.014,40.113-14.207
			c10.028-10.028,15.042-22.564,15.042-39.277s-5.014-29.249-15.042-39.277C2476.976,1418.578,2464.44,1414.4,2447.727,1414.4z
			 M2447.727,1520.532c-15.878,0-28.413-5.014-37.606-14.207c-9.193-9.193-14.207-22.564-14.207-37.606
			c0-15.878,5.014-28.413,14.207-38.442c9.193-9.193,22.564-14.207,38.442-14.207s29.249,5.014,38.442,14.207l0,0
			c9.193,10.028,14.207,22.563,14.207,37.606c0,15.878-5.014,28.413-14.207,37.606
			C2476.14,1515.518,2462.769,1520.532,2447.727,1520.532z M2447.727,1425.264c-13.371,0-23.399,4.178-31.756,11.7
			c-7.521,7.521-11.699,18.385-11.699,31.756s4.178,23.399,11.699,30.92c7.521,7.521,18.385,11.7,30.921,11.7
			c13.371,0,23.399-4.178,30.92-11.7c7.521-7.521,11.7-18.385,11.7-30.92c0-13.371-3.343-23.399-10.864-31.756l0,0
			C2471.126,1428.607,2461.098,1425.264,2447.727,1425.264z"/>
	</g>
	<g>
		<path fill="#545454" d="M2560.544,1438.635c-6.685,10.864-10.028,24.235-10.028,40.113v45.127h-11.699v-111.982h11.699v19.221
			c2.507-3.343,5.014-6.686,8.357-9.193c10.028-8.357,23.399-12.535,40.113-12.535v10.864
			C2581.437,1420.25,2568.066,1426.1,2560.544,1438.635z"/>
		<path fill="#545454" d="M2554.695,1528.889h-20.892v-122.01h20.892v11.7l0.836-0.836c10.864-8.357,25.071-13.371,42.62-13.371
			h5.014v20.057h-4.179c-15.878,0-27.577,5.014-35.099,15.878c-5.85,10.028-9.193,22.563-9.193,37.606L2554.695,1528.889
			L2554.695,1528.889z M2542.995,1518.861h2.507v-40.113c0-17.549,3.343-31.756,10.864-42.62l0,0
			c8.357-12.535,20.892-19.221,37.606-20.056v-1.671c-13.371,0.836-24.235,4.178-32.592,10.864c-3.343,2.507-5.85,5.014-7.521,8.357
			l-8.357,12.535v-29.249h-2.507V1518.861z"/>
	</g>
	<g>
		<path fill="#545454" d="M2634.921,1472.062c1.671,29.249,16.714,43.456,45.963,43.456c21.728,0,36.77-9.193,43.456-27.578h11.7
			c-4.178,14.207-11.7,24.235-22.564,30.085c-9.193,5.014-20.056,7.521-33.427,7.521c-18.385,0-33.427-5.014-42.62-15.878
			c-9.193-10.028-14.207-24.235-14.207-41.784s5.014-31.756,15.878-42.62c10.864-10.864,25.071-15.878,41.784-15.878
			c17.55,0,31.756,5.014,41.784,15.042s15.878,23.399,15.878,39.277v8.357H2634.921z M2681.719,1420.25
			c-13.371,0-23.399,3.343-31.756,10.864c-8.357,7.521-13.371,17.549-14.207,30.085h91.09c-0.836-12.535-5.014-22.564-13.371-30.085
			C2705.118,1423.593,2694.254,1420.25,2681.719,1420.25z"/>
		<path fill="#545454" d="M2680.048,1531.396c-20.056,0-35.934-5.85-46.798-17.549c-10.029-10.864-15.042-25.906-15.042-45.127
			c0-18.385,5.85-34.263,17.55-45.963s26.742-17.549,45.127-17.549c18.385,0,34.263,5.014,45.127,15.878
			c11.699,10.864,17.549,25.071,17.549,43.456v12.535h-104.461c2.507,23.399,15.878,34.263,40.948,34.263
			c20.056,0,33.427-7.521,39.277-24.235l0.836-3.343h21.728l-1.671,5.85c-5.014,15.878-13.371,26.742-25.071,32.592
			C2705.954,1528.053,2694.254,1531.396,2680.048,1531.396z M2681.719,1414.4c-16.714,0-29.249,5.014-38.442,15.042
			c-10.029,10.028-14.207,22.563-14.207,39.277s4.178,29.249,12.535,38.442c9.193,10.028,21.728,15.042,39.277,15.042
			c11.7,0,22.564-2.507,30.921-7.521c8.357-4.178,14.207-11.7,18.385-21.728h-2.507c-8.357,18.385-24.235,27.578-46.799,27.578
			c-31.756,0-49.305-16.714-50.977-47.634v-5.014h104.461v-3.343c0-15.042-5.014-27.578-14.207-35.934
			C2710.968,1418.578,2697.597,1414.4,2681.719,1414.4z M2731.025,1466.213h-101.954l0.836-5.014
			c1.671-14.207,6.685-25.071,15.878-33.427c9.193-8.357,20.892-12.535,35.099-12.535s25.906,4.178,35.099,12.535
			c9.193,8.357,14.207,19.221,15.042,33.427V1466.213z M2640.771,1457.02h81.062c-1.671-9.193-5.014-16.714-11.7-21.728
			c-7.521-6.685-16.714-10.028-28.413-10.028c-11.7,0-21.728,3.343-28.413,10.028
			C2646.62,1440.306,2642.442,1447.828,2640.771,1457.02z"/>
	</g>
	<g>
		<path fill="#545454" d="M2791.194,1438.635c-6.685,10.864-10.028,24.235-10.028,40.113v45.127h-11.699v-111.982h11.699v19.221
			c2.507-3.343,5.014-6.686,8.357-9.193c10.028-8.357,23.399-12.535,40.113-12.535v10.864
			C2812.086,1420.25,2799.551,1426.1,2791.194,1438.635z"/>
		<path fill="#545454" d="M2786.18,1528.889h-20.892v-122.01h20.892v11.7l0.836-0.836c10.864-8.357,25.071-13.371,42.62-13.371
			h5.014v20.057h-5.014c-15.878,0-27.577,5.014-35.099,15.878c-5.85,10.028-9.193,22.563-9.193,37.606v50.977H2786.18z
			 M2774.48,1518.861h2.507v-40.113c0-17.549,3.343-31.756,10.864-42.62l0,0c8.357-12.535,20.892-19.221,37.606-20.056v-1.671
			c-13.371,0.836-24.235,4.178-32.592,10.864c-3.343,2.507-5.85,5.014-7.521,8.357l-8.357,12.535v-29.249h-2.507V1518.861z"/>
	</g>
</g>
<g>
	<g id="XMLID_1_">
		<g>
			<polygon fill="#33BA20" points="482.191,1477.912 361.017,1598.251 240.678,1477.912 361.017,1357.573 			"/>
			<polygon fill="#0070BE" points="240.678,1236.399 361.017,1357.573 240.678,1477.912 120.339,1357.573 			"/>
			<polygon fill="#FFD111" points="240.678,1477.912 120.339,1598.251 0,1477.912 			"/>
			<polygon fill="#FF4B34" points="240.678,1477.912 0,1477.912 120.339,1357.573 			"/>
		</g>
	</g>
</g>
<rect x="694.825" y="1442.825" fill="#545454" width="14" height="80"/>
</svg>
